# xmcd
#
# Track frame offsets:
#	150
#	14052
#	29470
#	39559
#	52004
#	64485
#	75041
#	86625
#	104613
#	114359
#	138743
#	161563
#	183130
#	201806
#	213562
#	233413
#	250548
#	274543
#	285780
#	310401
#
# Disc length: 4447 seconds
#
# Revision: 0
# Processed by: cddbd v1.5.2PL0 Copyright (c) Steve Scherf et al.
# Submitted via: EZCDAudioConverter 1.3.4.1
#
DISCID=10115d14
DTITLE=Various Artist - Tumbélé
DYEAR=2009
DGENRE=
TTITLE0=Barel Coppet Et Mister Lof - Jeunesse Vauclin
TTITLE1=Les Loups Noirs D'Haïti - Jet Biguine
TTITLE2=Abel Zénon - Pas O Soué La
TTITLE3=Raphaël Zachille - Manzè Mona
TTITLE4=Robert Mavounsy Quartet - Henri Te Vlé Mayé
TTITLE5=L'Orchestre Jeunesse De Paul-Emile Haliar - La Vie Critique
TTITLE6=Orchestre Combo Zombi Et Michel Yéyé - Mussieu A Têt'a Poisson La
TTITLE7=Les Kings - Oriza
TTITLE8=Claude Rolcin Et Le West Indian Combo - Colas-La
TTITLE9=Anzala, Dolor, Vélo - Ti Fi La Ou Té Madam'
TTITLE10=Les Léopards - D'Leau Coco
TTITLE11=Ensemble Le Perfecta - Jojo
TTITLE12=Le Ry-Co Jazz - Dima Bolane
TTITLE13=Lola Martin - Edamise Oh!
TTITLE14=Les Aiglons De Basse Terre - Chombo Meringue
TTITLE15=Les Gentlemens - Son Tambou La
TTITLE16=L'Ensemble Abricot - Chonga
TTITLE17=Francisco - Fileo
TTITLE18=Monsieur Dolor Et Les Guitar Boys - Panty
TTITLE19=Robert Loison - Jean Fouillé, Pie Fouillé
EXTD=
EXTT0=
EXTT1=
EXTT2=
EXTT3=
EXTT4=
EXTT5=
EXTT6=
EXTT7=
EXTT8=
EXTT9=
EXTT10=
EXTT11=
EXTT12=
EXTT13=
EXTT14=
EXTT15=
EXTT16=
EXTT17=
EXTT18=
EXTT19=
PLAYORDER=
